<?xml version="1.0" encoding="UTF-8"?>
<!DOCTYPE svg PUBLIC "-//W3C//DTD SVG 1.1//EN" "http://www.w3.org/Graphics/SVG/1.1/DTD/svg11.dtd">
<!-- Creator: CorelDRAW X6 -->
<svg xmlns="http://www.w3.org/2000/svg" xml:space="preserve" width="4.15278in" height="1.19444in" version="1.1" style="shape-rendering:geometricPrecision; text-rendering:geometricPrecision; image-rendering:optimizeQuality; fill-rule:evenodd; clip-rule:evenodd"
viewBox="0 0 4153 1194"
 xmlns:xlink="http://www.w3.org/1999/xlink">
 <defs>
  <style type="text/css">
   <![CDATA[
    .fil2 {fill:#AC394A;fill-rule:nonzero}
    .fil1 {fill:#EE4237;fill-rule:nonzero}
    .fil0 {fill:#7C7C7D;fill-rule:nonzero}
   ]]>
  </style>
 </defs>
 <g id="Layer_x0020_1">
  <metadata id="CorelCorpID_0Corel-Layer"/>
  <path class="fil0" d="M2166 294c0,-49 -11,-62 -51,-70 -59,-11 -73,-6 -73,-27 0,-13 11,-17 29,-17 36,0 70,6 185,6 54,0 124,-6 158,-6 17,0 25,2 25,14 0,24 -13,19 -82,30 -21,3 -36,24 -36,60l0 777c0,51 6,52 74,70 36,10 49,6 49,25 0,10 -5,19 -30,19 -27,0 -68,-6 -163,-6 -132,0 -158,6 -187,6 -16,0 -22,-6 -22,-21 0,-14 16,-21 43,-24 68,-8 81,-22 81,-89l0 -749z"/>
  <path class="fil0" d="M2454 977c0,-21 8,-30 24,-30 14,0 24,14 44,73 29,84 71,136 147,136 73,0 117,-60 117,-138 0,-185 -336,-177 -336,-379 0,-139 135,-212 244,-212 55,0 120,11 146,22 19,8 21,17 21,113 0,51 -5,60 -29,60 -44,0 -21,-157 -163,-157 -67,0 -108,44 -108,106 0,166 336,147 336,387 0,133 -114,236 -279,236 -67,0 -165,-25 -165,-54l0 -163z"/>
  <path class="fil0" d="M3099 453l101 0c16,0 19,6 19,27 0,21 -3,27 -19,27l-93 0c-6,0 -8,6 -8,10l0 486c0,70 16,97 48,97 44,0 59,-76 81,-76 10,0 14,6 14,21 0,24 -49,151 -152,151 -94,0 -120,-86 -120,-190l0 -472c0,-19 -5,-25 -17,-25l-43 0c-14,0 -16,-5 -16,-14 0,-19 29,-25 86,-87 81,-87 76,-155 105,-155 8,0 16,10 16,24l0 179z"/>
  <path class="fil0" d="M3597 893c0,143 -41,200 -116,200 -44,0 -71,-38 -71,-87 5,-111 151,-236 171,-236 11,0 16,3 16,22l0 101zm130 -358c0,-86 -33,-108 -157,-108 -190,0 -317,171 -317,233 0,32 19,52 57,52 59,0 90,-43 98,-113 10,-84 62,-135 122,-135 43,0 67,29 67,70l0 136c0,100 -333,211 -333,385 0,94 51,138 133,138 124,0 171,-124 190,-124 19,0 30,117 132,117 68,0 138,-74 138,-127 0,-13 -5,-19 -14,-19 -25,0 -30,51 -63,51 -24,0 -52,-19 -52,-82l0 -475z"/>
  <path class="fil0" d="M4023 453l101 0c16,0 19,6 19,27 0,21 -3,27 -19,27l-94 0c-6,0 -8,6 -8,10l0 486c0,70 16,97 48,97 44,0 59,-76 81,-76 9,0 14,6 14,18l0 4c-2,27 -51,149 -152,149 -93,0 -120,-86 -120,-190l0 -472c0,-19 -5,-25 -17,-25l-43 0c-14,0 -16,-5 -16,-14 0,-19 29,-25 86,-87 81,-87 76,-155 105,-155 8,0 16,10 16,24l0 179z"/>
  <path class="fil1" d="M1122 1169l2 -3c4,-6 4,-17 2,-22 -4,-10 -15,-15 -22,-17 -16,-4 -28,-5 -44,-8 -12,-2 -27,-4 -37,-9 -13,-7 -21,-11 -27,-24 -10,-18 -10,-35 -11,-55l0 -935c2,-57 46,-84 54,-90 14,-10 35,-16 61,-18l36 0c15,1 31,3 47,7 56,13 544,173 590,189l0 0 0 984 -649 0z"/>
  <path class="fil2" d="M649 1169l-2 -3c-4,-6 -4,-17 -2,-22 4,-10 15,-15 22,-17 16,-4 28,-5 44,-8 12,-2 27,-4 37,-9 13,-7 21,-11 27,-24 10,-18 10,-35 11,-55l0 -935c-2,-57 -46,-84 -54,-90 -14,-10 -35,-16 -61,-18l-36 0c-15,1 -31,3 -47,7 -56,13 -544,173 -590,189l0 0 0 984 649 0z"/>
 </g>
</svg>
